<?xml version="1.0" encoding="utf-8"?>
<svg xmlns="http://www.w3.org/2000/svg" viewBox="929.2236 162.6641 512.1699 656.2704" width="512.17px" height="656.27px" preserveAspectRatio="none"><defs><linearGradient id="fireGradient" x1="0%" y1="0%" x2="0%" y2="100%"><stop offset="0" style="stop-color:#FF4500; stop-opacity:1"/><stop offset="0.5" style="stop-color:#FF8C00; stop-opacity:1"/><stop offset="1" style="stop-color:#FFD700; stop-opacity:1"/></linearGradient></defs><g transform="matrix(0.9999999999999999, 0, 0, 0.9999999999999999, 604.8679899702664, 100.81099851147825)" id="object-0"><path d="M 666.91 577.444 C 661.91 582.444 655.66 586.944 648.16 590.944 C 640.66 594.944 633.91 597.944 627.91 599.944 C 609.91 605.944 592.16 606.194 574.66 600.694 C 557.16 595.194 542.41 587.444 530.41 577.444 C 528.41 575.444 527.66 573.444 528.16 571.444 C 528.66 569.444 529.91 567.944 531.91 566.944 C 550.91 560.944 565.91 551.444 576.91 538.444 C 587.91 525.444 595.41 511.444 599.41 496.444 C 602.41 482.444 601.91 468.944 597.91 455.944 C 593.91 442.944 590.91 429.444 588.91 415.444 C 586.91 404.444 586.16 393.694 586.66 383.194 C 587.16 372.694 589.41 362.444 593.41 352.443 C 593.41 350.443 594.41 349.443 596.41 349.443 C 598.41 349.443 599.91 349.943 600.91 350.943 C 606.91 363.944 614.66 375.444 624.16 385.444 C 633.66 395.444 643.66 404.944 654.16 413.944 C 664.66 422.944 674.16 432.694 682.66 443.194 C 691.16 453.694 696.41 465.944 698.41 479.944 C 699.41 485.944 699.91 491.444 699.91 496.444 C 700.91 511.444 698.41 526.444 692.41 541.444 C 686.41 556.444 677.91 568.444 666.91 577.444 Z M 756.91 320.943 C 744.91 309.943 732.41 299.943 719.41 290.944 C 706.41 281.944 693.91 271.444 681.91 259.444 C 657.91 235.444 642.16 207.444 634.66 175.444 C 627.16 143.444 628.41 110.944 638.41 77.944 C 640.41 72.944 639.66 68.694 636.16 65.194 C 632.66 61.694 628.41 60.944 623.41 62.944 C 611.41 67.944 600.16 73.944 589.66 80.944 C 579.16 87.944 568.91 94.944 558.91 101.944 C 527.91 127.944 503.41 158.694 485.41 194.194 C 467.408 229.694 457.158 267.694 454.658 308.193 C 452.158 348.693 458.408 388.444 473.408 427.444 C 473.408 429.444 473.658 431.444 474.158 433.444 C 474.658 435.444 474.91 437.444 474.91 439.444 C 474.91 448.444 470.908 454.944 462.908 458.944 C 454.908 462.944 446.908 461.444 438.908 454.444 C 436.908 451.444 435.408 448.944 434.408 446.944 C 418.411 426.944 407.661 404.194 402.161 378.694 C 396.661 353.193 395.911 327.943 399.911 302.943 C 400.911 296.943 398.661 292.444 393.161 289.444 C 387.661 286.444 382.911 287.444 378.911 292.444 C 358.911 318.443 344.411 347.193 335.401 378.694 C 326.401 410.194 322.901 441.944 324.901 473.944 C 324.901 482.944 325.651 492.194 327.151 501.694 C 328.651 511.194 330.901 520.444 333.901 529.444 C 340.911 553.444 350.411 575.444 362.411 595.444 C 381.411 627.444 406.911 654.194 438.908 675.694 C 470.908 697.194 505.41 710.444 542.41 715.445 C 581.41 720.445 620.66 718.445 660.16 709.444 C 699.66 700.444 734.41 682.444 764.41 655.444 C 786.41 634.444 803.66 610.194 816.16 582.694 C 828.66 555.194 835.41 526.444 836.41 496.444 C 837.41 466.444 831.91 437.444 819.91 409.444 C 818.91 407.444 818.16 405.694 817.66 404.194 C 817.16 402.694 816.41 400.944 815.41 398.944 C 806.41 381.944 796.41 366.444 785.41 352.443 C 781.41 346.443 777.16 340.943 772.66 335.943 C 768.16 330.943 762.91 325.943 756.91 320.943 Z" fill="url(#fireGradient)" stroke="#FF6347"/></g></svg>